<svg height="512pt" viewBox="-8 0 512 512" width="512pt" xmlns="http://www.w3.org/2000/svg"><path d="m39.640625 318.703125c0 18.738281 15.191406 33.925781 33.925781 33.925781h349.472656c18.738282 0 33.925782-15.1875 33.925782-33.925781v-206.664063h-417.324219zm0 0" fill="#d4ffff"/><path d="m411.75 10h-326.894531c-24.96875 0-45.214844 20.242188-45.214844 45.214844v56.824218h417.324219v-56.824218c0-24.972656-20.242188-45.214844-45.214844-45.214844zm-320.148438 72.96875c-11.292968 0-20.445312-9.15625-20.445312-20.445312 0-11.292969 9.15625-20.445313 20.445312-20.445313 11.292969 0 20.445313 9.152344 20.445313 20.445313 0 11.289062-9.152344 20.445312-20.445313 20.445312zm65.46875 0c-11.292968 0-20.445312-9.15625-20.445312-20.445312 0-11.292969 9.15625-20.445313 20.445312-20.445313 11.292969 0 20.445313 9.152344 20.445313 20.445313 0 11.289062-9.152344 20.445312-20.445313 20.445312zm65.46875 0c-11.292968 0-20.445312-9.15625-20.445312-20.445312 0-11.292969 9.15625-20.445313 20.445312-20.445313 11.292969 0 20.445313 9.152344 20.445313 20.445313 0 11.289062-9.152344 20.445312-20.445313 20.445312zm0 0" fill="#9bdcff"/><path d="m112.046875 62.523438c0 11.289062-9.152344 20.445312-20.445313 20.445312-11.292968 0-20.445312-9.15625-20.445312-20.445312 0-11.292969 9.152344-20.445313 20.445312-20.445313 11.292969 0 20.445313 9.152344 20.445313 20.445313zm0 0" fill="#ff8db2"/><path d="m177.515625 62.523438c0 11.289062-9.152344 20.445312-20.445313 20.445312-11.289062 0-20.445312-9.15625-20.445312-20.445312 0-11.292969 9.15625-20.445313 20.445312-20.445313 11.292969 0 20.445313 9.152344 20.445313 20.445313zm0 0" fill="#ffe671"/><path d="m242.984375 62.523438c0 11.289062-9.152344 20.445312-20.445313 20.445312-11.289062 0-20.445312-9.15625-20.445312-20.445312 0-11.292969 9.15625-20.445313 20.445312-20.445313 11.292969 0 20.445313 9.152344 20.445313 20.445313zm0 0" fill="#78ffa9"/><path d="m329.070312 447.238281h-49.1875c3.113282 5.375 4.90625 11.613281 4.90625 18.273438 0 6.660156-1.792968 12.894531-4.90625 18.269531h49.1875c10.089844 0 18.273438-8.179688 18.273438-18.269531 0-10.089844-8.183594-18.273438-18.273438-18.273438zm0 0" fill="#6ab6ff"/><path d="m216.722656 447.238281h-52.839844c-10.089843 0-18.273437 8.183594-18.273437 18.273438 0 10.089843 8.179687 18.269531 18.273437 18.269531h52.839844c-3.113281-5.375-4.90625-11.609375-4.90625-18.269531 0-6.660157 1.789063-12.898438 4.90625-18.273438zm0 0" fill="#6ab6ff"/><path d="m279.882812 447.238281c-6.316406-10.886719-18.085937-18.214843-31.578124-18.214843-13.492188 0-25.269532 7.328124-31.582032 18.214843-3.113281 5.375-4.90625 11.613281-4.90625 18.273438 0 6.660156 1.792969 12.894531 4.90625 18.269531 6.3125 10.890625 18.089844 18.21875 31.582032 18.21875 13.492187 0 25.265624-7.328125 31.578124-18.21875 3.113282-5.375 4.90625-11.609375 4.90625-18.269531 0-6.660157-1.789062-12.898438-4.90625-18.273438zm0 0" fill="#9bdcff"/><path d="m91.601562 32.074219c-16.789062 0-30.445312 13.660156-30.445312 30.445312 0 16.789063 13.660156 30.445313 30.445312 30.445313 16.789063 0 30.445313-13.65625 30.445313-30.445313 0-16.785156-13.65625-30.445312-30.445313-30.445312zm0 40.894531c-5.757812 0-10.445312-4.6875-10.445312-10.445312 0-5.761719 4.6875-10.445313 10.445312-10.445313 5.757813 0 10.445313 4.683594 10.445313 10.445313 0 5.757812-4.683594 10.445312-10.445313 10.445312zm0 0"/><path d="m157.070312 32.074219c-16.789062 0-30.445312 13.660156-30.445312 30.445312 0 16.789063 13.660156 30.445313 30.445312 30.445313 16.789063 0 30.445313-13.65625 30.445313-30.445313 0-16.785156-13.65625-30.445312-30.445313-30.445312zm0 40.894531c-5.757812 0-10.445312-4.6875-10.445312-10.445312 0-5.761719 4.6875-10.445313 10.445312-10.445313 5.757813 0 10.445313 4.683594 10.445313 10.445313 0 5.757812-4.6875 10.445312-10.445313 10.445312zm0 0"/><path d="m222.539062 32.074219c-16.785156 0-30.445312 13.660156-30.445312 30.445312 0 16.789063 13.660156 30.445313 30.445312 30.445313 16.789063 0 30.445313-13.65625 30.445313-30.445313 0-16.785156-13.65625-30.445312-30.445313-30.445312zm0 40.894531c-5.757812 0-10.445312-4.6875-10.445312-10.445312 0-5.761719 4.6875-10.445313 10.445312-10.445313 5.761719 0 10.445313 4.683594 10.445313 10.445313 0 5.757812-4.683594 10.445312-10.445313 10.445312zm0 0"/><path d="m486.605469 455.511719h-131.097657c-4.046874-10.667969-14.367187-18.269531-26.4375-18.269531h-43.898437c-6.5625-8.535157-16.007813-14.730469-26.871094-17.125v-56.886719c0-.203125-.015625-.402344-.027343-.601563h164.765624c24.21875 0 43.925782-19.703125 43.925782-43.925781v-263.488281c0-30.445313-24.769532-55.214844-55.214844-55.214844h-326.894531c-30.445313 0-55.214844 24.769531-55.214844 55.214844v263.488281c0 24.222656 19.707031 43.925781 43.925781 43.925781h164.765625c-.011719.199219-.027343.398438-.027343.601563v56.886719c-10.863282 2.394531-20.3125 8.589843-26.871094 17.125h-47.550782c-12.070312 0-22.390624 7.601562-26.4375 18.269531h-127.445312c-5.523438 0-10 4.476562-10 10 0 5.523437 4.476562 10 10 10h127.445312c4.046876 10.667969 14.367188 18.269531 26.4375 18.269531h47.550782c8.507812 11.066406 21.867187 18.21875 36.871094 18.21875 15.003906 0 28.359374-7.152344 36.867187-18.21875h43.898437c12.070313 0 22.390626-7.601562 26.441407-18.269531h131.09375c5.523437 0 10-4.476563 10-10 0-5.523438-4.476563-10-10-10zm-436.964844-136.808594v-196.664063h282.664063c5.519531 0 10-4.476562 10-10 0-5.519531-4.480469-10-10-10h-282.664063v-46.824218c0-19.417969 15.796875-35.214844 35.214844-35.214844h326.894531c19.417969 0 35.214844 15.796875 35.214844 35.214844v46.824218h-34.660156c-5.523438 0-10 4.480469-10 10 0 5.523438 4.476562 10 10 10h34.660156v196.664063c0 13.191406-10.734375 23.925781-23.925782 23.925781h-349.472656c-13.191406 0-23.925781-10.734375-23.925781-23.925781zm152.917969 155.078125h-38.675782c-4.5625 0-8.269531-3.710938-8.269531-8.269531 0-4.558594 3.707031-8.269531 8.269531-8.269531h38.675782c-1 5.527343-.960938 11.246093 0 16.539062zm45.746094 18.21875c-13.242188 0-24.632813-9.878906-26.28125-23.222656-.050782-.417969-.09375-.835938-.125-1.257813-.011719-.136719-.023438-.269531-.03125-.40625-.925782-15.269531 11.265624-28.089843 26.4375-28.089843 13.300781 0 24.632812 9.941406 26.277343 23.226562.054688.414062.09375.835938.125 1.253906.011719.136719.023438.269532.03125.410156.925781 15.300782-11.285156 28.085938-26.433593 28.085938zm80.765624-18.21875h-35.019531c1.015625-5.625.941407-11.3125 0-16.542969h35.019531c4.5625 0 8.273438 3.710938 8.273438 8.273438 0 4.558593-3.710938 8.269531-8.273438 8.269531zm0 0"/><path d="m212.707031 199.277344c3.464844-4.300782 2.789063-10.597656-1.507812-14.0625-4.300781-3.464844-10.597657-2.792969-14.0625 1.507812l-22.59375 28.023438c-7.230469 8.972656-7.230469 21.023437 0 29.996094l22.59375 28.023437c3.472656 4.308594 9.773437 4.964844 14.058593 1.507813 4.300782-3.464844 4.976563-9.761719 1.511719-14.0625l-22.59375-28.023438c-1.269531-1.574219-1.269531-3.3125 0-4.890625zm0 0"/><path d="m299.46875 186.722656c-3.464844-4.300781-9.765625-4.976562-14.0625-1.507812-4.300781 3.46875-4.972656 9.761718-1.507812 14.0625l22.589843 28.023437c1.273438 1.574219 1.273438 3.3125 0 4.890625l-22.589843 28.023438c-3.464844 4.300781-2.792969 10.59375 1.507812 14.0625 4.300781 3.464844 10.59375 2.789062 14.0625-1.511719l22.59375-28.023437c7.230469-8.96875 7.230469-21.023438 0-29.996094zm0 0"/><path d="m258.929688 171.46875c-5.441407-.957031-10.628907 2.667969-11.585938 8.105469l-17.773438 100.71875c-.960937 5.4375 2.667969 10.625 8.109376 11.585937 5.484374.964844 10.632812-2.710937 11.585937-8.109375l17.769531-100.714843c.960938-5.441407-2.667968-10.628907-8.105468-11.585938zm0 0"/><path d="m372.328125 102.039062h-.023437c-5.523438 0-9.988282 4.480469-9.988282 10 0 5.523438 4.488282 10 10.011719 10s10-4.476562 10-10c0-5.519531-4.476563-10-10-10zm0 0"/></svg>